HIERARCHY
ROOT Hips
{
	OFFSET -6.474376 92.780052 -12.937067
	CHANNELS 6 Xposition Yposition Zposition Xrotation Yrotation Zrotation
	JOINT LeftUpLeg
	{
		OFFSET 8.910001 -6.269997 0.000000
		CHANNELS 6 Xposition Yposition Zposition Xrotation Yrotation Zrotation
		JOINT LeftLeg
		{
			OFFSET 0.000000 -44.878643 0.000000
			CHANNELS 6 Xposition Yposition Zposition Xrotation Yrotation Zrotation
			JOINT LeftFoot
			{
				OFFSET 0.000000 -40.700958 0.000000
				CHANNELS 6 Xposition Yposition Zposition Xrotation Yrotation Zrotation
				JOINT LeftToeBase
				{
					OFFSET 0.000008 -6.262317 12.954720
					CHANNELS 6 Xposition Yposition Zposition Xrotation Yrotation Zrotation
					JOINT LeftToeBaseEnd
					{
						OFFSET 0.000000 0.000000 8.000000
						CHANNELS 6 Xposition Yposition Zposition Xrotation Yrotation Zrotation
						End Site
						{
							OFFSET 0.000000 8.000000 0.000000
						}
					}
				}
			}
		}
	}
	JOINT RightUpLeg
	{
		OFFSET -8.910000 -6.269997 0.000000
		CHANNELS 6 Xposition Yposition Zposition Xrotation Yrotation Zrotation
		JOINT RightLeg
		{
			OFFSET -0.000003 -44.878643 0.000439
			CHANNELS 6 Xposition Yposition Zposition Xrotation Yrotation Zrotation
			JOINT RightFoot
			{
				OFFSET 0.000003 -40.700958 0.000000
				CHANNELS 6 Xposition Yposition Zposition Xrotation Yrotation Zrotation
				JOINT RightToeBase
				{
					OFFSET 0.000001 -6.262317 12.954749
					CHANNELS 6 Xposition Yposition Zposition Xrotation Yrotation Zrotation
					JOINT RightToeBaseEnd
					{
						OFFSET 0.000670 0.000000 8.000000
						CHANNELS 6 Xposition Yposition Zposition Xrotation Yrotation Zrotation
						End Site
						{
							OFFSET 0.000000 8.000000 0.000000
						}
					}
				}
			}
		}
	}
	JOINT Spine
	{
		OFFSET 0.000000 7.000000 0.000000
		CHANNELS 6 Xposition Yposition Zposition Xrotation Yrotation Zrotation
		JOINT Spine1
		{
			OFFSET 0.000000 12.666664 0.000000
			CHANNELS 3 Xrotation Yrotation Zrotation
			JOINT Spine2
			{
				OFFSET 0.000000 12.666664 0.000000
				CHANNELS 3 Xrotation Yrotation Zrotation
				JOINT LeftShoulder
				{
					OFFSET 7.000000 14.255211 0.000000
					CHANNELS 6 Xposition Yposition Zposition Xrotation Yrotation Zrotation
					JOINT LeftArm
					{
						OFFSET 10.707251 0.000000 0.000000
						CHANNELS 6 Xposition Yposition Zposition Xrotation Yrotation Zrotation
						JOINT LeftForeArm
						{
							OFFSET 27.305466 -0.000351 0.000000
							CHANNELS 6 Xposition Yposition Zposition Xrotation Yrotation Zrotation
							JOINT LeftHand
							{
								OFFSET 26.697147 -0.000336 0.000000
								CHANNELS 6 Xposition Yposition Zposition Xrotation Yrotation Zrotation
								JOINT LeftHandThumb1
								{
									OFFSET 4.348747 -0.798553 4.282434
									CHANNELS 6 Xposition Yposition Zposition Xrotation Yrotation Zrotation
									JOINT LeftHandThumb2
									{
										OFFSET 2.512581 -0.536133 0.707454
										CHANNELS 6 Xposition Yposition Zposition Xrotation Yrotation Zrotation
										JOINT LeftHandThumb3
										{
											OFFSET 2.543144 -0.000031 0.000010
											CHANNELS 6 Xposition Yposition Zposition Xrotation Yrotation Zrotation
											JOINT LeftHandThumb4
											{
												OFFSET 2.666748 -0.000015 -0.000008
												CHANNELS 6 Xposition Yposition Zposition Xrotation Yrotation Zrotation
												End Site
												{
													OFFSET 0.000023 2.666748 0.000000
												}
											}
										}
									}
								}
								JOINT LeftHandIndex1
								{
									OFFSET 8.821976 0.199615 3.471669
									CHANNELS 6 Xposition Yposition Zposition Xrotation Yrotation Zrotation
									JOINT LeftHandIndex2
									{
										OFFSET 4.225319 -0.000061 -0.000262
										CHANNELS 6 Xposition Yposition Zposition Xrotation Yrotation Zrotation
										JOINT LeftHandIndex3
										{
											OFFSET 2.652313 -0.000015 -0.092786
											CHANNELS 6 Xposition Yposition Zposition Xrotation Yrotation Zrotation
											JOINT LeftHandIndex4
											{
												OFFSET 1.953445 0.000000 -0.136721
												CHANNELS 6 Xposition Yposition Zposition Xrotation Yrotation Zrotation
												End Site
												{
													OFFSET -0.000008 1.958221 0.000002
												}
											}
										}
									}
								}
								JOINT LeftHandMiddle1
								{
									OFFSET 8.809883 0.500778 1.304685
									CHANNELS 6 Xposition Yposition Zposition Xrotation Yrotation Zrotation
									JOINT LeftHandMiddle2
									{
										OFFSET 4.863251 -0.000061 0.000000
										CHANNELS 6 Xposition Yposition Zposition Xrotation Yrotation Zrotation
										JOINT LeftHandMiddle3
										{
											OFFSET 2.765236 -0.000031 -0.000173
											CHANNELS 6 Xposition Yposition Zposition Xrotation Yrotation Zrotation
											JOINT LeftHandMiddle4
											{
												OFFSET 2.005630 -0.000031 -0.000251
												CHANNELS 6 Xposition Yposition Zposition Xrotation Yrotation Zrotation
												End Site
												{
													OFFSET 0.000023 2.005630 0.000000
												}
											}
										}
									}
								}
								JOINT LeftHandRing1
								{
									OFFSET 8.893768 0.379807 -0.793159
									CHANNELS 6 Xposition Yposition Zposition Xrotation Yrotation Zrotation
									JOINT LeftHandRing2
									{
										OFFSET 4.537758 -0.000061 -0.000282
										CHANNELS 6 Xposition Yposition Zposition Xrotation Yrotation Zrotation
										JOINT LeftHandRing3
										{
											OFFSET 2.304527 -0.000031 -0.000287
											CHANNELS 6 Xposition Yposition Zposition Xrotation Yrotation Zrotation
											JOINT LeftHandRing4
											{
												OFFSET 1.923347 -0.000031 -0.000360
												CHANNELS 6 Xposition Yposition Zposition Xrotation Yrotation Zrotation
												End Site
												{
													OFFSET 0.000023 1.923340 0.000000
												}
											}
										}
									}
								}
								JOINT LeftHandPinky1
								{
									OFFSET 8.882271 -0.313141 -2.490356
									CHANNELS 6 Xposition Yposition Zposition Xrotation Yrotation Zrotation
									JOINT LeftHandPinky2
									{
										OFFSET 3.044098 -0.000046 0.000000
										CHANNELS 6 Xposition Yposition Zposition Xrotation Yrotation Zrotation
										JOINT LeftHandPinky3
										{
											OFFSET 1.974503 -0.000046 0.000000
											CHANNELS 6 Xposition Yposition Zposition Xrotation Yrotation Zrotation
											JOINT LeftHandPinky4
											{
												OFFSET 1.666618 -0.000061 0.000001
												CHANNELS 6 Xposition Yposition Zposition Xrotation Yrotation Zrotation
												End Site
												{
													OFFSET 0.000092 1.666611 0.000000
												}
											}
										}
									}
								}
							}
						}
					}
				}
				JOINT RightShoulder
				{
					OFFSET -7.000000 14.255211 0.000000
					CHANNELS 6 Xposition Yposition Zposition Xrotation Yrotation Zrotation
					JOINT RightArm
					{
						OFFSET -10.707276 0.000000 0.000000
						CHANNELS 6 Xposition Yposition Zposition Xrotation Yrotation Zrotation
						JOINT RightForeArm
						{
							OFFSET -27.305599 -0.001099 0.000000
							CHANNELS 6 Xposition Yposition Zposition Xrotation Yrotation Zrotation
							JOINT RightHand
							{
								OFFSET -26.696991 -0.001083 0.000000
								CHANNELS 6 Xposition Yposition Zposition Xrotation Yrotation Zrotation
								JOINT RightHandThumb1
								{
									OFFSET -4.348351 -0.798676 4.282815
									CHANNELS 6 Xposition Yposition Zposition Xrotation Yrotation Zrotation
									JOINT RightHandThumb2
									{
										OFFSET -2.512505 -0.536194 0.707677
										CHANNELS 6 Xposition Yposition Zposition Xrotation Yrotation Zrotation
										JOINT RightHandThumb3
										{
											OFFSET -2.541588 -0.000107 0.088820
											CHANNELS 6 Xposition Yposition Zposition Xrotation Yrotation Zrotation
											JOINT RightHandThumb4
											{
												OFFSET -2.665123 -0.000137 0.093137
												CHANNELS 6 Xposition Yposition Zposition Xrotation Yrotation Zrotation
												End Site
												{
													OFFSET -0.000153 2.666748 -0.000000
												}
											}
										}
									}
								}
								JOINT RightHandIndex1
								{
									OFFSET -8.821678 0.199371 3.472445
									CHANNELS 6 Xposition Yposition Zposition Xrotation Yrotation Zrotation
									JOINT RightHandIndex2
									{
										OFFSET -4.225319 -0.000168 0.000114
										CHANNELS 6 Xposition Yposition Zposition Xrotation Yrotation Zrotation
										JOINT RightHandIndex3
										{
											OFFSET -2.652321 -0.000107 0.092696
											CHANNELS 6 Xposition Yposition Zposition Xrotation Yrotation Zrotation
											JOINT RightHandIndex4
											{
												OFFSET -1.953445 -0.000076 0.136656
												CHANNELS 6 Xposition Yposition Zposition Xrotation Yrotation Zrotation
												End Site
												{
													OFFSET -0.000076 1.958221 0.000000
												}
											}
										}
									}
								}
								JOINT RightHandMiddle1
								{
									OFFSET -8.809784 0.500534 1.305458
									CHANNELS 6 Xposition Yposition Zposition Xrotation Yrotation Zrotation
									JOINT RightHandMiddle2
									{
										OFFSET -4.863251 -0.000198 0.000132
										CHANNELS 6 Xposition Yposition Zposition Xrotation Yrotation Zrotation
										JOINT RightHandMiddle3
										{
											OFFSET -2.763550 -0.000107 0.096583
											CHANNELS 6 Xposition Yposition Zposition Xrotation Yrotation Zrotation
											JOINT RightHandMiddle4
											{
												OFFSET -2.000740 -0.000076 0.139965
												CHANNELS 6 Xposition Yposition Zposition Xrotation Yrotation Zrotation
												End Site
												{
													OFFSET -0.000084 2.005630 0.000000
												}
											}
										}
									}
								}
								JOINT RightHandRing1
								{
									OFFSET -8.893845 0.379562 -0.792377
									CHANNELS 6 Xposition Yposition Zposition Xrotation Yrotation Zrotation
									JOINT RightHandRing2
									{
										OFFSET -4.537758 -0.000183 0.000123
										CHANNELS 6 Xposition Yposition Zposition Xrotation Yrotation Zrotation
										JOINT RightHandRing3
										{
											OFFSET -2.303123 -0.000092 0.080492
											CHANNELS 6 Xposition Yposition Zposition Xrotation Yrotation Zrotation
											JOINT RightHandRing4
											{
												OFFSET -1.918655 -0.000076 0.134222
												CHANNELS 6 Xposition Yposition Zposition Xrotation Yrotation Zrotation
												End Site
												{
													OFFSET -0.000076 1.923355 0.000000
												}
											}
										}
									}
								}
								JOINT RightHandPinky1
								{
									OFFSET -8.882484 -0.313385 -2.489574
									CHANNELS 6 Xposition Yposition Zposition Xrotation Yrotation Zrotation
									JOINT RightHandPinky2
									{
										OFFSET -3.047798 -0.000122 0.000083
										CHANNELS 6 Xposition Yposition Zposition Xrotation Yrotation Zrotation
										JOINT RightHandPinky3
										{
											OFFSET -1.975693 -0.000031 0.069049
											CHANNELS 6 Xposition Yposition Zposition Xrotation Yrotation Zrotation
											JOINT RightHandPinky4
											{
												OFFSET -1.664574 0.000000 0.116447
												CHANNELS 6 Xposition Yposition Zposition Xrotation Yrotation Zrotation
												End Site
												{
													OFFSET 0.000038 1.668640 -0.000008
												}
											}
										}
									}
								}
							}
						}
					}
				}
				JOINT Neck
				{
					OFFSET 0.000000 12.666664 0.000000
					CHANNELS 6 Xposition Yposition Zposition Xrotation Yrotation Zrotation
					JOINT Head
					{
						OFFSET 0.000000 10.000000 0.000000
						CHANNELS 3 Xrotation Yrotation Zrotation
						JOINT HeadEnd
						{
							OFFSET 0.000000 20.000000 0.000000
							CHANNELS 3 Xrotation Yrotation Zrotation
							End Site
							{
								OFFSET 0.000000 20.000000 0.000000
							}
						}
					}
				}
			}
		}
	}
}
MOTION
Frames: 3
Frame Time: 0.008333
-6.474376 92.780052 -12.937067 -0.000000 0.000000 -0.000000 8.910001 -6.269997 0.000000 -0.000000 0.000000 -0.000000 0.000000 -44.878643 0.000000 -0.000000 0.000000 -0.000000 0.000000 -40.700958 0.000000 -0.000000 0.000000 -0.000000 0.000008 -6.262317 12.954720 -0.000000 0.000000 -0.000000 0.000000 0.000000 8.000000 -0.000000 0.000000 -0.000000 -8.910000 -6.269997 0.000000 -0.000000 0.000000 -0.000000 -0.000003 -44.878643 0.000439 -0.000000 0.000000 -0.000000 0.000003 -40.700958 0.000000 -0.000000 0.000000 -0.000000 0.000002 -6.262317 12.954749 0.000000 0.000000 -0.000000 0.000672 0.000000 8.000000 -0.000000 0.000000 -0.000000 0.000000 7.000000 0.000000 -0.000000 0.000000 -0.000000 -0.000000 0.000000 -0.000000 -0.000000 0.000000 -0.000000 7.000000 14.255211 0.000000 -0.000000 0.000000 -0.000000 10.707251 0.000000 0.000000 -0.000000 0.000000 -0.000000 27.305466 -0.000351 0.000000 -0.000000 0.000000 -0.000000 26.697147 -0.000336 0.000000 -0.000000 0.000000 -0.000000 4.348747 -0.798553 4.282434 -0.000000 0.000000 -0.000000 2.512581 -0.536133 0.707454 -0.000000 0.000000 -0.000000 2.543144 -0.000031 0.000010 -0.000000 0.000000 -0.000000 2.666748 -0.000015 -0.000008 -0.000000 0.000000 -0.000000 8.821976 0.199615 3.471669 -0.000000 -0.000000 -0.000000 4.225311 -0.000076 -0.000260 -0.000000 0.000000 0.000000 2.652298 -0.000031 -0.092782 -0.000000 -0.000000 -0.000000 1.953438 -0.000015 -0.136720 -0.000000 -0.000000 -0.000000 8.809883 0.500778 1.304685 0.000000 -0.000000 -0.000000 4.863251 -0.000061 0.000000 -0.000000 0.000000 -0.000000 2.765228 -0.000031 -0.000173 -0.000000 0.000000 -0.000000 2.005630 -0.000031 -0.000252 0.000000 0.000000 0.000000 8.893768 0.379807 -0.793159 -0.000000 -0.000000 -0.000000 4.537758 -0.000061 -0.000282 -0.000000 0.000000 -0.000000 2.304520 -0.000031 -0.000287 -0.000000 0.000000 -0.000000 1.923340 -0.000031 -0.000360 -0.000000 0.000000 -0.000000 8.882271 -0.313141 -2.490356 -0.000000 0.000000 -0.000000 3.044098 -0.000046 0.000000 -0.000000 0.000000 0.000000 1.974503 -0.000046 0.000000 -0.000000 0.000000 0.000000 1.666618 -0.000061 0.000001 -0.000000 -0.000000 0.000000 -7.000000 14.255211 0.000000 -0.000000 0.000000 -0.000000 -10.707276 0.000000 0.000000 -0.000000 0.000000 -0.000000 -27.305599 -0.001099 0.000000 0.000000 0.000000 0.000000 -26.696991 -0.001068 0.000000 0.000000 0.000000 0.000000 -4.348351 -0.798660 4.282815 -0.000000 0.000000 0.000000 -2.512505 -0.536194 0.707677 0.000000 0.000000 0.000000 -2.541588 -0.000107 0.088820 0.000000 0.000000 0.000000 -2.665123 -0.000137 0.093137 0.000000 0.000000 0.000000 -8.821678 0.199387 3.472445 0.000000 -0.000000 -0.000000 -4.225327 -0.000168 0.000114 -0.000000 0.000000 0.000000 -2.652344 -0.000092 0.092695 -0.000000 -0.000000 0.000000 -1.953461 -0.000031 0.136656 0.000000 0.000000 0.000000 -8.809784 0.500549 1.305458 0.000000 0.000000 0.000000 -4.863251 -0.000198 0.000131 -0.000000 -0.000000 0.000000 -2.763557 -0.000092 0.096582 -0.000000 -0.000000 0.000000 -2.000748 -0.000061 0.139963 -0.000000 -0.000000 0.000000 -8.893845 0.379578 -0.792377 -0.000000 0.000000 0.000000 -4.537766 -0.000198 0.000122 -0.000000 0.000000 0.000000 -2.303139 -0.000107 0.080491 0.000000 -0.000000 -0.000000 -1.918663 -0.000076 0.134223 0.000000 -0.000000 -0.000000 -8.882484 -0.313370 -2.489574 -0.000000 0.000000 0.000000 -3.047798 -0.000122 0.000083 0.000000 0.000000 0.000000 -1.975708 0.000000 0.069050 -0.000000 -0.000000 -0.000000 -1.664589 0.000031 0.116447 0.000000 -0.000000 -0.000000 0.000000 12.666664 0.000000 -0.000000 0.000000 -0.000000 -0.000000 0.000000 -0.000000 -0.000000 0.000000 -0.000000 
-5.930789 92.748146 -13.150048 -14.092742 105.247457 18.399983 8.910001 -6.270000 0.000000 7.695129 27.416881 -6.887641 -0.000001 -44.878643 0.000001 31.557018 0.000000 -0.000000 0.000002 -40.700958 -0.000003 -28.201182 21.619055 1.414393 0.000003 -6.262317 12.954720 -9.849755 0.000001 0.000000 0.000002 -0.000000 7.999999 0.000000 0.000001 -0.000000 -8.910002 -6.269997 -0.000001 -39.968781 -12.296544 -16.273431 -0.000003 -44.878651 0.000446 51.190079 0.000002 -0.000002 0.000003 -40.700966 0.000001 -9.625086 -27.654633 6.078395 0.000000 -6.262317 12.954751 -17.413578 -0.000221 0.001436 0.000669 0.000000 8.000003 -0.000000 -0.000006 -0.000001 -0.000002 6.999994 0.000001 1.905238 -1.090655 -0.287285 3.806098 -2.190206 -0.538260 3.806099 -2.190193 -0.538261 7.000000 14.255209 -0.000001 15.300211 3.702480 2.793711 10.707257 0.000003 0.000005 5.400277 -21.354827 -58.136958 27.305475 -0.000347 -0.000004 -0.000240 -18.022153 -0.000039 26.697142 -0.000328 0.000001 -40.987514 -5.847190 -5.495916 4.348743 -0.798540 4.282430 34.906614 -55.379819 49.689770 2.512581 -0.536140 0.707456 0.000061 0.001443 0.000072 2.543146 -0.000034 0.000010 -0.000014 0.000405 0.000153 2.666751 -0.000013 -0.000015 -0.000000 -0.000001 -0.000001 8.821986 0.199614 3.471668 0.000276 0.000009 0.016441 4.225313 -0.000087 -0.000259 -0.001321 0.000016 -0.040443 2.652296 -0.000034 -0.092787 0.001355 -0.000241 0.019282 1.953450 -0.000020 -0.136728 -0.000004 0.000001 -0.000005 8.809887 0.500777 1.304681 0.000022 0.000049 -0.000043 4.863256 -0.000073 0.000001 0.000096 0.000012 -0.000907 2.765240 -0.000033 -0.000172 0.000011 0.000004 0.000017 2.005633 -0.000003 -0.000251 -0.000001 0.000003 -0.000001 8.893767 0.379797 -0.793160 0.000028 0.000085 -0.051808 4.537747 -0.000073 -0.000284 0.000043 -0.000031 -0.000649 2.304526 -0.000038 -0.000290 0.000038 -0.000008 0.235845 1.923339 -0.000036 -0.000357 -0.000003 -0.000003 0.000000 8.882272 -0.313146 -2.490359 0.000017 -0.000034 0.028148 3.044092 -0.000040 -0.000001 0.000158 0.000056 -0.001770 1.974513 -0.000050 -0.000000 -0.000012 0.000163 -0.112645 1.666611 -0.000077 0.000003 -0.000000 0.000005 -0.000001 -7.000000 14.255188 0.000003 10.430928 -1.750932 -1.187023 -10.707275 0.000000 -0.000008 0.758752 26.384631 65.563150 -27.305599 -0.001101 0.000005 -0.002444 46.656360 0.001057 -26.696989 -0.001068 -0.000007 -3.241592 7.213360 10.854667 -4.348355 -0.798672 4.282807 34.209218 55.615280 -49.545704 -2.512496 -0.536187 0.707676 0.000095 -0.001282 -0.000123 -2.541586 -0.000103 0.088814 0.000024 -0.000307 0.000099 -2.665124 -0.000141 0.093126 0.000003 -0.000002 0.000001 -8.821689 0.199375 3.472439 -0.000001 0.000044 0.000318 -4.225316 -0.000164 0.000113 0.000029 -0.000011 0.000300 -2.652338 -0.000091 0.092693 -0.000101 0.000128 -0.001424 -1.953442 -0.000047 0.136654 0.000004 -0.000001 0.000002 -8.809790 0.500539 1.305457 0.000021 0.000051 0.000257 -4.863244 -0.000195 0.000126 0.000093 -0.000015 0.000798 -2.763541 -0.000092 0.096581 -0.000107 0.000037 -0.001257 -2.000739 -0.000080 0.139956 -0.000003 0.000008 -0.000001 -8.893851 0.379557 -0.792376 0.000035 0.000041 0.001043 -4.537776 -0.000189 0.000120 0.000079 -0.000033 0.000799 -2.303124 -0.000085 0.080492 -0.000322 -0.000213 -0.004884 -1.918648 -0.000082 0.134223 0.000003 0.000004 -0.000000 -8.882493 -0.313386 -2.489573 0.000020 -0.000032 0.001438 -3.047788 -0.000116 0.000087 0.000484 -0.000081 0.004261 -1.975707 -0.000011 0.069049 -0.000357 0.000613 -0.005180 -1.664575 -0.000004 0.116442 0.000000 -0.000004 -0.000002 -0.000001 12.666647 -0.000001 3.051871 4.149748 0.560571 -2.714725 12.811844 -1.605625 0.000000 0.000002 -0.000001 
-5.371166 92.730713 -13.368830 -14.876524 104.090437 19.456432 8.910002 -6.269994 -0.000000 8.107696 27.352073 -7.403060 0.000003 -44.878643 0.000001 32.217729 -0.000000 -0.000002 -0.000003 -40.700966 -0.000002 -27.323859 22.435484 1.107994 0.000011 -6.262318 12.954720 -11.346539 0.000001 0.000000 -0.000002 0.000000 8.000000 -0.000000 0.000001 -0.000000 -8.909998 -6.269998 -0.000000 -39.733580 -11.848149 -16.322538 -0.000004 -44.878651 0.000441 51.518946 0.000001 -0.000001 0.000003 -40.700958 -0.000000 -9.973903 -27.456659 6.154896 0.000001 -6.262317 12.954748 -17.390234 -0.000216 0.001436 0.000670 0.000000 8.000001 -0.000000 0.000001 -0.000000 0.000001 6.999997 0.000000 1.918029 -1.008083 -0.322687 3.831217 -2.026438 -0.611610 3.831232 -2.026427 -0.611609 6.999997 14.255206 0.000000 15.320427 3.887996 3.381347 10.707262 0.000004 0.000002 5.791792 -21.117828 -57.568919 27.305458 -0.000347 0.000004 -0.000246 -18.526156 -0.000040 26.697145 -0.000330 -0.000009 -39.307438 -6.217527 -4.661546 4.348756 -0.798561 4.282434 34.906197 -55.379601 49.689391 2.512586 -0.536140 0.707455 0.000102 0.000775 0.000086 2.543145 -0.000012 0.000017 -0.000036 0.001194 0.000403 2.666742 -0.000030 -0.000010 -0.000000 0.000002 0.000002 8.821987 0.199607 3.471668 0.000042 0.000007 0.000023 4.225317 -0.000077 -0.000260 0.000101 -0.000006 -0.001007 2.652305 -0.000006 -0.092782 0.000004 -0.000013 -0.000005 1.953446 0.000008 -0.136720 0.000000 -0.000002 -0.000006 8.809886 0.500771 1.304685 0.000026 0.000047 -0.000014 4.863245 -0.000071 0.000001 0.000083 0.000030 -0.001053 2.765226 -0.000028 -0.000170 0.000030 -0.000002 0.000020 2.005638 -0.000027 -0.000251 0.000002 -0.000002 0.000000 8.893779 0.379808 -0.793157 0.000031 0.000037 0.000008 4.537751 -0.000075 -0.000279 0.000061 -0.000009 -0.000653 2.304513 -0.000035 -0.000289 -0.000003 -0.000015 -0.000043 1.923340 -0.000029 -0.000363 -0.000001 -0.000002 -0.000000 8.882275 -0.313144 -2.490356 0.000016 -0.000030 -0.047234 3.044094 -0.000034 0.000001 0.000216 0.000024 -0.002107 1.974501 -0.000043 0.000001 0.000001 0.000139 0.189592 1.666620 -0.000069 0.000000 0.000002 -0.000003 -0.000004 -7.000001 14.255210 0.000000 10.520786 -1.702670 -1.249470 -10.707281 0.000002 0.000000 1.094804 26.890033 65.285530 -27.305586 -0.001098 0.000001 -0.002521 47.531095 0.001108 -26.696991 -0.001088 -0.000003 -2.920548 7.283517 10.712367 -4.348346 -0.798679 4.282809 34.209153 55.615232 -49.545612 -2.512508 -0.536181 0.707673 0.000083 -0.001527 -0.000129 -2.541588 -0.000112 0.088825 0.000009 0.000389 0.000022 -2.665123 -0.000138 0.093122 0.000000 0.000002 0.000003 -8.821686 0.199373 3.472440 -0.000377 0.000046 -0.027569 -4.225314 -0.000155 0.000117 0.002476 -0.000004 0.070921 -2.652333 -0.000080 0.092697 -0.003007 -0.000658 -0.043086 -1.953447 -0.000052 0.136653 -0.000001 -0.000001 0.000007 -8.809789 0.500539 1.305454 -0.000281 0.000061 -0.022934 -4.863235 -0.000189 0.000127 0.002289 -0.000007 0.063273 -2.763566 -0.000088 0.096580 -0.002764 -0.000881 -0.039438 -2.000736 -0.000078 0.139958 0.000001 0.000002 0.000001 -8.893845 0.379569 -0.792377 0.000029 0.000044 0.000324 -4.537751 -0.000188 0.000123 0.000129 -0.000048 0.001322 -2.303136 -0.000082 0.080504 -0.000089 0.000041 -0.001360 -1.918644 -0.000084 0.134230 -0.000000 -0.000002 0.000005 -8.882490 -0.313391 -2.489578 0.000009 0.000126 0.000366 -3.047797 -0.000128 0.000085 0.000434 -0.000084 0.003810 -1.975709 -0.000010 0.069060 -0.000099 -0.000024 -0.001459 -1.664571 0.000001 0.116447 -0.000001 0.000003 -0.000011 -0.000001 12.666649 0.000000 3.117175 4.358990 0.439002 -2.614602 13.364957 -1.741027 0.000000 0.000000 -0.000000 
